<?xml version="1.0" encoding="utf-8"?>
<!-- Generator: Adobe Illustrator 25.0.0, SVG Export Plug-In . SVG Version: 6.00 Build 0)  -->
<svg version="1.1" id="Layer_1" xmlns="http://www.w3.org/2000/svg" xmlns:xlink="http://www.w3.org/1999/xlink" x="0px" y="0px"
	 viewBox="0 0 500 500" style="enable-background:new 0 0 500 500;" xml:space="preserve">
<style type="text/css">
	.st0{fill:#FFFFFF;}
	.st1{fill:#5E732F;}
	.st2{fill:#79943C;}
	.st3{fill:none;stroke:#292E4A;stroke-miterlimit:10;}
	.st4{fill:#A6B1ED;}
	.st5{fill:#FF7700;}
	.st6{fill:none;stroke:#FFFFFF;stroke-width:0.9773;stroke-miterlimit:10;}
	.st7{fill:#6470B5;}
	.st8{fill:#292E4A;}
	.st9{fill:#CC9B74;}
	.st10{fill:#F9CCA9;}
	.st11{fill:none;stroke:#CC9B74;stroke-width:0.9715;stroke-linecap:round;stroke-linejoin:round;stroke-miterlimit:10;}
	.st12{fill:none;stroke:#6470B5;stroke-width:0.9715;stroke-miterlimit:10;}
	.st13{fill:none;stroke:#FFFFFF;stroke-width:0.9715;stroke-miterlimit:10;}
	.st14{fill:none;stroke:#292E4A;stroke-width:0.9715;stroke-miterlimit:10;}
	.st15{fill:none;stroke:#FF7700;stroke-width:0.9715;stroke-linecap:round;stroke-linejoin:round;stroke-miterlimit:10;}
	.st16{fill:#995417;}
	.st17{fill:none;stroke:#FFFFFF;stroke-width:0.9715;stroke-linecap:round;stroke-linejoin:round;stroke-miterlimit:10;}
	.st18{fill:none;stroke:#995417;stroke-width:0.9715;stroke-miterlimit:10;}
	.st19{fill:#8EAD46;}
	.st20{fill:none;stroke:#525730;stroke-miterlimit:10;}
	.st21{fill:#C3C4C9;}
	.st22{fill:#3F4152;}
	.st23{fill:#2D2F3B;}
	.st24{fill:#F9C8A2;}
	.st25{fill:#495285;}
	.st26{fill:#FFD817;}
	.st27{fill:none;stroke:#525730;stroke-width:0.8793;stroke-miterlimit:10;}
	.st28{fill:none;stroke:#292E4A;stroke-width:0.8793;stroke-miterlimit:10;}
	.st29{fill:#A83E63;}
	.st30{fill:#DC5181;}
	.st31{fill:none;stroke:#FFFFFF;stroke-width:0.9005;stroke-miterlimit:10;}
	.st32{fill:none;stroke:#6470B5;stroke-width:0.9005;stroke-linecap:round;stroke-linejoin:round;stroke-miterlimit:10;}
	.st33{fill:#FFA200;}
</style>
<rect x="697" y="290.3" class="st0" width="500" height="500"/>
<g id="OBJECTS">
	<g>
		<path class="st1" d="M411.9,294.7H84.4c0,0,18.4-7.1,38.4-26.6c20-19.4,27.9-24.3,52.5-28.9c24.6-4.6,20.6-19.4,50.3-22.3
			s48.6-16.6,55.4-22.9s37.7,2.2,44.6,27.4c6.9,25.2,20.6,16.7,34.9,34.9C374.8,274.7,407.9,270.1,411.9,294.7z"/>
		<g>
			<path class="st2" d="M322.1,312.8h113.7c0,0,13.5-48.1,6.4-53c-7.1-5-13.3,15.2-20.1-9.1c-6.8-24.2-12.1-53.9-33.8-49.9
				c-21.7,4-23.7,65.3-38.7,67.9C334.6,271.3,319.6,294.8,322.1,312.8z"/>
			<line class="st3" x1="311.3" y1="312.8" x2="427.1" y2="312.8"/>
		</g>
		<g>
			<path class="st4" d="M61.5,134.2h130.7c0,0-19.3-5.6-22.5-12.5c-3.2-6.9-5.5-11.2-11.9-11.8s-9.4,0.5-15.2-8.3
				c-5.9-8.8-14.4-12.3-21.6-9.9c-7.2,2.4-12.8,23.5-24.3,25.9c-11.5,2.4-15.2,0.3-19,2.4C74,122.2,64.9,133.4,61.5,134.2z"/>
			<path class="st4" d="M308.9,132.2h132c0,0,3.2-12.9-4.9-16.9s-9.9,3.4-17.1-1.4c-7.3-4.9,2.3-34.1-10.7-37.2s-30,30.1-45.7,29.2
				c-15.6-0.9-20.6-2.9-26.4,1.7C330.2,112.2,314.9,131.3,308.9,132.2z"/>
		</g>
		<g>
			<rect x="284.9" y="116.8" class="st5" width="77" height="98.5"/>
			<g>
				<g>
					<line class="st6" x1="296.2" y1="134.6" x2="341" y2="134.6"/>
					<line class="st6" x1="296.2" y1="143.6" x2="350.4" y2="143.6"/>
					<line class="st6" x1="296.2" y1="152.6" x2="350.4" y2="152.6"/>
					<line class="st6" x1="296.2" y1="161.6" x2="350.4" y2="161.6"/>
					<line class="st6" x1="296.2" y1="170.5" x2="350.4" y2="170.5"/>
					<line class="st6" x1="296.2" y1="179.5" x2="350.4" y2="179.5"/>
					<line class="st6" x1="296.2" y1="188.5" x2="350.4" y2="188.5"/>
					<line class="st6" x1="296.2" y1="197.5" x2="350.4" y2="197.5"/>
				</g>
			</g>
		</g>
		<g>
			<g>
				<path class="st7" d="M269.9,196.9v-20.7l-13,0.4c-0.8-3.1-2.1-6-3.6-8.7l9.4-8.9l-14.6-14.6l-8.9,9.4c-2.7-1.6-5.7-2.8-8.7-3.6
					l0.4-13h-20.7l0.4,13c-3.1,0.8-6,2.1-8.7,3.6l-8.9-9.4l-14.6,14.6l9.4,8.9c-1.6,2.7-2.8,5.7-3.6,8.7l-13-0.4v20.7l13-0.4
					c0.8,3.1,2.1,6,3.6,8.7l-9.4,8.9l14.6,14.6l8.9-9.4c2.7,1.6,5.7,2.8,8.7,3.6l-0.4,13h20.7l-0.4-13c3.1-0.8,6-2.1,8.7-3.6
					l8.9,9.4l14.6-14.6l-9.4-8.9c1.6-2.7,2.8-5.7,3.6-8.7L269.9,196.9z M220.6,199.4c-7.1,0-12.8-5.7-12.8-12.8
					c0-7.1,5.7-12.8,12.8-12.8s12.8,5.7,12.8,12.8S227.6,199.4,220.6,199.4z"/>
				<path class="st8" d="M220.6,160.7c-14.3,0-25.8,11.6-25.8,25.8s11.6,25.8,25.8,25.8c14.3,0,25.8-11.6,25.8-25.8
					S234.8,160.7,220.6,160.7z M220.6,199.4c-7.1,0-12.8-5.7-12.8-12.8c0-7.1,5.7-12.8,12.8-12.8s12.8,5.7,12.8,12.8
					S227.6,199.4,220.6,199.4z"/>
			</g>
			<g>
				<path class="st4" d="M273.7,115.9v-12.6l-7.9,0.2c-0.5-1.9-1.3-3.7-2.2-5.3l5.7-5.4l-8.9-8.9l-5.4,5.7c-1.7-0.9-3.4-1.7-5.3-2.2
					l0.2-7.9h-12.6l0.2,7.9c-1.9,0.5-3.7,1.3-5.3,2.2l-5.4-5.7l-8.9,8.9l5.7,5.4c-0.9,1.7-1.7,3.4-2.2,5.3l-7.9-0.2v12.6l7.9-0.2
					c0.5,1.9,1.3,3.7,2.2,5.3l-5.7,5.4l8.9,8.9l5.4-5.7c1.7,0.9,3.4,1.7,5.3,2.2l-0.2,7.9H250l-0.2-7.9c1.9-0.5,3.7-1.3,5.3-2.2
					l5.4,5.7l8.9-8.9l-5.7-5.4c0.9-1.7,1.7-3.4,2.2-5.3L273.7,115.9z M243.7,117.4c-4.3,0-7.8-3.5-7.8-7.8s3.5-7.8,7.8-7.8
					s7.8,3.5,7.8,7.8S248,117.4,243.7,117.4z"/>
			</g>
		</g>
		<g>
			<path class="st9" d="M247.8,278.7c-1.2,4.5-3.6,10.3-4.2,15.4c-0.6,5.1,9,8.1,10.2,5.5c0.2-0.3-2-2.1-0.2-6.9
				c2.2-5.7,3.3-8.2,2.3-12.1C255.2,277.6,248.6,276,247.8,278.7z"/>
			<path class="st9" d="M324,199.9c0,0-15.1,7.8-24.8,6.8s-33.5-3.9-42.3,5c-8.7,8.9-43.7,51.9-42,55s40.6,34,48.8,31.3
				c8.3-2.7,44.7-39.8,53.9-45.4c9.2-5.6,23-12.4,23-12.4L324,199.9z"/>
			<path class="st10" d="M173.5,190.6c0,0,26.1,13.9,37.3,14.7c11.2,0.7,30.8-1,44.9,2.9c14.1,3.9,2,10.7,7,15.5
				c5,4.9,39.9,25.2,45.3,28.7s6.8,8.1,3.2,11.2c-3.6,3.1-8,2.2-14.8-1.7c-6.8-3.9-19.7-13.1-20.4-11.2s21.9,16.1,25,18.7
				c3.2,2.7,3.6,7-1.5,9.7c-5.1,2.7-9.5,2.9-13.8,0c-4.4-2.9-19.2-13.8-20.9-12.1c-1.7,1.7,7.8,6.8,13.8,11.4c5.7,4.2,10,5.6,10.4,9
				s-4.8,9.4-13.6,6.6c-5.2-1.7-18.9-11.9-21-10.4s20.1,10.4,19.8,13.9c-0.3,3.6-5,9.5-18.4,3.1c-8.2-3.9-57.9-38.9-63-42.7
				c-5.2-3.9-49-27-49-27L173.5,190.6z"/>
			<path class="st11" d="M279.3,238.3c0,0-1.7,7.4-7.5,10.8c0.6,4.4-2.7,13-9.7,15.4c-0.6,4.9-4.8,12.9-9.8,14.6"/>
			<path class="st9" d="M223.5,214c-0.1-2.1,9.9-3.1,16.7-5.3c6.8-2.3,18.6-5.9,28.3-5.5c9.7,0.4,21.5,3,29.6,3.4
				c8.1,0.4,2.1,9.5-5.7,11.8c-7.8,2.3-24.8,8.1-29.7,5.3c-4.9-2.8-9.3-3.9-16.9-3.2C238.2,221.1,223.8,219,223.5,214z"/>
			
				<ellipse transform="matrix(0.9321 -0.3623 0.3623 0.9321 -38.4493 157.8409)" class="st8" cx="401.7" cy="181.4" rx="26.6" ry="63"/>
			<line class="st12" x1="410.4" y1="218.8" x2="431.4" y2="209.4"/>
			<path class="st8" d="M334.2,190c0,0-7.3,2.9-10.2,3.8c-2,0.6-4.3,1.5-5.6,2c-0.5,0.2-0.8,0.8-0.5,1.3c1.9,4.2,9.6,21.6,11.5,26
				c2.1,5,7.9,20.8,8.7,21.7c0.8,0.9,18-6,18-6L334.2,190z"/>
			<path class="st7" d="M330.5,188.1l68.8-39.1c0,0,6.8,9.2,6.3,19.1c-0.5,9.8,8.5,15.2,8.3,32.2c-0.1,7.8,6.1,14.8,6.1,14.8
				l-65.6,28.4L330.5,188.1z"/>
			<line class="st13" x1="406.9" y1="144.1" x2="330.5" y2="188.1"/>
			<line class="st14" x1="340.7" y1="211.7" x2="377.6" y2="194.7"/>
			<g>
				<path class="st0" d="M351.9,199.9c0,2.1-1.7,3.8-3.8,3.8c-2.1,0-3.8-1.7-3.8-3.8c0-2.1,1.7-3.8,3.8-3.8
					C350.3,196.2,351.9,197.8,351.9,199.9z"/>
				<g>
					<path class="st8" d="M347.5,198.9c0,0.2-0.2,0.4-0.4,0.4s-0.4-0.2-0.4-0.4s0.2-0.4,0.4-0.4
						C347.3,198.5,347.5,198.7,347.5,198.9z"/>
					<path class="st8" d="M349.7,198.9c0,0.2-0.2,0.4-0.4,0.4s-0.4-0.2-0.4-0.4s0.2-0.4,0.4-0.4S349.7,198.7,349.7,198.9z"/>
					<path class="st8" d="M347.5,200.9c0,0.2-0.2,0.4-0.4,0.4s-0.4-0.2-0.4-0.4c0-0.2,0.2-0.4,0.4-0.4
						C347.3,200.5,347.5,200.7,347.5,200.9z"/>
					<path class="st8" d="M349.7,200.9c0,0.2-0.2,0.4-0.4,0.4s-0.4-0.2-0.4-0.4c0-0.2,0.2-0.4,0.4-0.4S349.7,200.7,349.7,200.9z"/>
				</g>
			</g>
			<g>
				<circle class="st0" cx="362.9" cy="193.8" r="3.8"/>
				<g>
					<path class="st8" d="M362.2,192.8c0,0.2-0.2,0.4-0.4,0.4s-0.4-0.2-0.4-0.4c0-0.2,0.2-0.4,0.4-0.4
						C362,192.4,362.2,192.6,362.2,192.8z"/>
					<path class="st8" d="M364.4,192.8c0,0.2-0.2,0.4-0.4,0.4c-0.2,0-0.4-0.2-0.4-0.4c0-0.2,0.2-0.4,0.4-0.4
						C364.2,192.4,364.4,192.6,364.4,192.8z"/>
					<path class="st8" d="M362.2,194.8c0,0.2-0.2,0.4-0.4,0.4s-0.4-0.2-0.4-0.4s0.2-0.4,0.4-0.4C362,194.4,362.2,194.6,362.2,194.8z
						"/>
					<path class="st8" d="M364.4,194.8c0,0.2-0.2,0.4-0.4,0.4c-0.2,0-0.4-0.2-0.4-0.4s0.2-0.4,0.4-0.4
						C364.2,194.4,364.4,194.6,364.4,194.8z"/>
				</g>
			</g>
			
				<ellipse transform="matrix(0.3623 -0.9321 0.9321 0.3623 -99.7426 217.0572)" class="st8" cx="108.8" cy="181.4" rx="63" ry="26.6"/>
			<line class="st15" x1="100" y1="218.8" x2="79" y2="209.4"/>
			<path class="st16" d="M176.6,189.2c0,0,6.8,3.8,9.5,5c1.7,0.8,4.2,1.9,5.5,2.4c0.5,0.2,0.8,0.8,0.5,1.3
				c-1.9,4.2-9.1,20.7-11,25.1c-2.1,5-10.6,23-11.4,23.9c-0.8,0.9-15.3-8.2-15.3-8.2L176.6,189.2z"/>
			<path class="st5" d="M179.9,188.1l-68.8-39.1c0,0-0.6,12.6-10.4,18.1c-8.6,4.9-17.2,14.9-10.3,30.5c4.4,9.9,0,17.4,0,17.4
				l65.6,28.4L179.9,188.1z"/>
			<line class="st17" x1="103.5" y1="144.1" x2="179.9" y2="188.1"/>
			<line class="st18" x1="169.7" y1="211.7" x2="132.8" y2="194.7"/>
			<g>
				<path class="st0" d="M158.4,199.9c0,2.1,1.7,3.8,3.8,3.8c2.1,0,3.8-1.7,3.8-3.8c0-2.1-1.7-3.8-3.8-3.8
					C160.1,196.2,158.4,197.8,158.4,199.9z"/>
				<g>
					<path class="st8" d="M162.9,198.9c0,0.2,0.2,0.4,0.4,0.4c0.2,0,0.4-0.2,0.4-0.4s-0.2-0.4-0.4-0.4S162.9,198.7,162.9,198.9z"/>
					<path class="st8" d="M160.7,198.9c0,0.2,0.2,0.4,0.4,0.4s0.4-0.2,0.4-0.4s-0.2-0.4-0.4-0.4S160.7,198.7,160.7,198.9z"/>
					<path class="st8" d="M162.9,200.9c0,0.2,0.2,0.4,0.4,0.4c0.2,0,0.4-0.2,0.4-0.4c0-0.2-0.2-0.4-0.4-0.4
						C163.1,200.5,162.9,200.7,162.9,200.9z"/>
					<path class="st8" d="M160.7,200.9c0,0.2,0.2,0.4,0.4,0.4s0.4-0.2,0.4-0.4c0-0.2-0.2-0.4-0.4-0.4S160.7,200.7,160.7,200.9z"/>
				</g>
			</g>
			<g>
				<circle class="st0" cx="147.5" cy="193.8" r="3.8"/>
				<g>
					<path class="st8" d="M148.2,192.8c0,0.2,0.2,0.4,0.4,0.4c0.2,0,0.4-0.2,0.4-0.4c0-0.2-0.2-0.4-0.4-0.4S148.2,192.6,148.2,192.8
						z"/>
					<path class="st8" d="M146,192.8c0,0.2,0.2,0.4,0.4,0.4c0.2,0,0.4-0.2,0.4-0.4c0-0.2-0.2-0.4-0.4-0.4S146,192.6,146,192.8z"/>
					<path class="st8" d="M148.2,194.8c0,0.2,0.2,0.4,0.4,0.4c0.2,0,0.4-0.2,0.4-0.4s-0.2-0.4-0.4-0.4
						C148.4,194.4,148.2,194.6,148.2,194.8z"/>
					<path class="st8" d="M146,194.8c0,0.2,0.2,0.4,0.4,0.4c0.2,0,0.4-0.2,0.4-0.4s-0.2-0.4-0.4-0.4
						C146.2,194.4,146,194.6,146,194.8z"/>
				</g>
			</g>
			<path class="st9" d="M196.3,261.5c0-5.2,4.5-21.7,8.9-21.2c4.4,0.5,7.1,3.7,6.6,9.1c-0.5,5.3-5.5,16.5-4.5,18.3s3.7,2.3,2.3,3.2
				C208.1,271.8,196.3,269.2,196.3,261.5z"/>
			<path class="st9" d="M214.2,276.8c-1.6-2.8-1.8-7.9,0-13.3s6.5-17.4,8.1-17.8c3.6-0.8,7.9,2.6,9.1,7.1c1.1,4.5-9,24.3-7.5,25.8
				s2.4,1.9,2,2.6C224.6,283.8,216.7,281,214.2,276.8z"/>
			<path class="st9" d="M229.3,286c-0.4-2.8,4.2-20.7,7.5-21.5s7,3.2,7.5,7.1c0.5,3.9-4.8,17.1-4,18.2c0.6,1,2.1,1.8,2,2.2
				C241.3,295.6,230.2,292.1,229.3,286z"/>
		</g>
		<g>
			<g>
				<path class="st19" d="M356,327.9h78.9c0,0,14.2-37,13.8-49.1c-0.4-12.1-6.9-8.6-3-24.8c3.9-16.2,10.4-43.4-1.3-45.1
					c-11.6-1.7-34.1,53.5-44.9,56.9c-10.8,3.5-21.1,10.4-30.2,26.7C360.3,308.9,356,327.9,356,327.9z"/>
				<path class="st20" d="M445.7,209.2c0,0-21.8,73.4-45.5,118.7"/>
				<path class="st20" d="M413.8,248.5c0,0-10.2,41.4-21.5,79.4"/>
				<path class="st20" d="M444.9,258.1c0,0-20.9,47.5-35.5,69.8"/>
			</g>
			<line class="st3" x1="336.2" y1="327.9" x2="447.6" y2="327.9"/>
		</g>
		<g>
			<path class="st21" d="M408.6,373c7.5,0,13.6,2.4,13.6,5.4S740.1,442,732.6,442c-7.5,0-337.6-60.6-337.6-63.6S401.1,373,408.6,373
				z"/>
			<path class="st21" d="M357.6,373c7.5,0,13.6,2.4,13.6,5.4S689.1,442,681.6,442c-7.5,0-337.6-60.6-337.6-63.6S350.1,373,357.6,373
				z"/>
			<g>
				<path class="st9" d="M375,265.7h-9.2c-0.4,0-0.8-0.2-0.9-0.6l-5.9-15.5c-0.1-0.4,0.1-0.8,0.6-0.8h9.2c0.4,0,0.8,0.2,0.9,0.6
					l5.9,15.5C375.7,265.3,375.4,265.7,375,265.7z"/>
				<path class="st7" d="M410,370.6l3.1,3.4c0,0-5.1,4.2-6.4,4.6c-1.3,0.4-3.8,0-5.1,0c-1.3,0,2-1.1,3.1-2.3c1.1-1.1,2-5.7,2-5.7
					H410z"/>
				<path class="st7" d="M362.4,370.7c0,0,2.8,7.7-0.4,7.7c-1.2,0-6.9,0-8.3,0s-9-4.4-8.2-5.3c0.8-0.9,4.8,0.2,6.1,0.1
					c1.3-0.1,4.1-0.3,5.3-1.4s1.2-1.5,1.2-1.5L362.4,370.7z"/>
				<path class="st22" d="M375.9,294.2c0,0-13.3,44.2-19.7,77.1h7.3c0,0,16.2-44.6,19.6-50.6l1.7,19.9c0,0,13.8,22.9,21.5,30.6h5.1
					c0,0-14.1-26.4-15-36.6c-0.9-10.3-0.6-17.2-0.3-23.1s2.3-13.5-0.7-17.4L375.9,294.2L375.9,294.2z"/>
				<path class="st23" d="M411.3,371.2c0,0-4.3-8-8.2-16.8l0,0c-3.1-3-7.9-7.1-11.7-9.1c-3.8-2-6.6-4.7-6.6-4.7s13.8,22.9,21.5,30.6
					L411.3,371.2L411.3,371.2z"/>
				<path class="st24" d="M356,272.7c0,0-2.9-1.7-4.4-2.4c-1.5-0.6-4.3-1.9-5.5-2s-2.1,0.1-1.4,0.9c0.7,0.8,3.2,2.8,3.5,3.4
					s-2.1-0.1-2.6,0.3c-0.5,0.4,1,1.3,1.9,1.4c1,0.1,2.8-0.1,4.1,0.2c1.2,0.3,4.4,1.5,4.4,1.5L356,272.7L356,272.7z"/>
				<path class="st25" d="M383.1,259.6c0,0-5.2,7.6-6,9c-0.8,1.4-2.2,4.1-3.4,6c-0.4,0.6-1.4,2.5-2.3,2.6
					c-0.9,0.1-16.3-5.5-16.3-5.5l-1.3,4.7c0,0,3.1,1.2,5.1,2.3c2,1.1,6.6,3.3,8.2,3.9s7.7,3,9.1,2c1.4-1,6.5-9.5,6.5-9.5
					L383.1,259.6z"/>
				<path class="st24" d="M366.7,263.2c0,0,0-4.7-0.5-5.7c-0.5-1-2-5.2-2.4-5c-0.4,0.2,0.6,3,0,3.2c-0.6,0.1-3.4-4.5-4-4.5
					s-0.1,6.8,1.1,8.2s2.8,2.9,2.8,3.2c0,0.3,1.1,3.3,1.1,3.3L366.7,263.2z"/>
				<path class="st24" d="M386.8,238.8c0,0-1.5,8.1-1.2,9.5s2.8,1.4,3.7,2.8c0.8,1.4,0.6,5.5,0.6,5.5h7.1c0,0-0.6-4.9-0.3-6.7
					c0.3-1.8,1.9-8.8,0-10.8C394.7,237.2,387.7,237.7,386.8,238.8z"/>
				<path class="st16" d="M383.6,238.4c0.6,3,7.1,1.8,8.3,2.5s0.9,3.8,1.3,4.6c0.4,0.8,1-1.1,2.1-0.4c1,0.7,0.5,2.9-0.7,2.9
					c0.9,1.5,1.2,2.9,2,2.7c0.8-0.2,2.1-3.7,2.2-6.1c0.1-2.5-1-4.2-0.7-5.6c0.3-1.5-2.2-2.9-4.4-2.9
					C391.6,236,382.9,235,383.6,238.4z"/>
				<path class="st7" d="M387.4,256.6c0,0-1-1,1-1.4c2-0.4,10.2-0.2,10.5,0.7c0.4,0.9-1,1.6,0,3.2c1,1.6,1.2,8.3,0.1,14.4
					s-3.6,13.3-2.9,15.9c0.7,2.6,2.1,6.3-0.5,6.3s-15.5,0-18.3,0s-2.6-1-1.9-3.7s0.8-3.8,0.8-3.8s-2.6,1.4-3.6-0.8
					c-1-2.2-9.5-22.7-9.1-23.4s2.7-2.3,3.3-1.7c0.7,0.6,7.7,12.3,8.9,13c0.9,0.5,3.9-2.6,3.9-2.6s2-8.3,2.4-10.1
					C382.4,260,384.3,256.6,387.4,256.6z"/>
				<path class="st25" d="M379.6,272.7c0,0,2.9-3.1,4.2-4.1c1.3-1,4.1-3.5,4.8-4.5c0.8-1-0.6-0.1-1.7,0.6c-1.1,0.7-3.2,2.8-4.2,3.5
					s-2.6,2.3-2.6,2.3L379.6,272.7z"/>
				<path class="st25" d="M376.2,288.2c0,0,3.2-2.7,4-3.5s4.5-3.5,5.8-4.7c1.4-1.1,4.5-4.1,5.3-4.7c0.9-0.6,1.6-2.5,2.1-1.9
					c0.5,0.6-1.2,3.1-2.1,3.7s-6.4,5-7.8,6.3s-7.7,6.6-7.7,6.6L376.2,288.2z"/>
				<path class="st23" d="M383.1,320.7c0,0,1.9-6.7,3.6-8.4c1.7-1.7,3.1-4.4,3.4-5.4c1.6,1.6-1.6,3.7-2.6,6.9s-4.1,11.5-4.1,11.5
					L383.1,320.7z"/>
			</g>
		</g>
		<g>
			<path class="st26" d="M457,155.1c-9.3,3.4-12.1,6.2-15.5,15.5c-3.4-9.3-6.2-12.1-15.5-15.5c9.3-3.4,12.1-6.2,15.5-15.5
				C444.9,148.9,447.7,151.7,457,155.1z"/>
			<path class="st26" d="M79,155.1c-9.3,3.4-12.1,6.2-15.5,15.5c-3.4-9.3-6.2-12.1-15.5-15.5c9.3-3.4,12.1-6.2,15.5-15.5
				C67,148.9,69.7,151.7,79,155.1z"/>
			<path class="st26" d="M447.8,192.4c-3.8,1.4-4.9,2.5-6.3,6.3c-1.4-3.8-2.5-4.9-6.3-6.3c3.8-1.4,4.9-2.5,6.3-6.3
				C442.9,189.9,444,191,447.8,192.4z"/>
			<path class="st26" d="M164.8,158.9c-3.8,1.4-4.9,2.5-6.3,6.3c-1.4-3.8-2.5-4.9-6.3-6.3c3.8-1.4,4.9-2.5,6.3-6.3
				C159.8,156.4,161,157.5,164.8,158.9z"/>
			<path class="st26" d="M92.1,106.1c-3.8,1.4-4.9,2.5-6.3,6.3c-1.4-3.8-2.5-4.9-6.3-6.3c3.8-1.4,4.9-2.5,6.3-6.3
				C87.2,103.5,88.3,104.7,92.1,106.1z"/>
		</g>
		<g>
			<g>
				<path class="st2" d="M172.3,316.3c0,0-10.6-10.3-12-22.3s-1.5-24.6-11.7-25.8c-10.3-1.2-7,18.8-10.8,19.1
					c-3.8,0.3-5.6-53.9-20.8-54.8c-15.2-0.9-12.2,22.6-10,35.2c1.4,7.9,1.7,11.8-2.7,11.8c-7.4,0-7-21.7-9.6-39.3S87,209,67.9,209
					s-7.9,26.4-1.8,37.5c6.2,11.1,13.8,24.3,7,26.1c-6.7,1.8-11.7-16.4-22.9-15.2s-15.8,22-5,33.1s-17,4.4-15.5,25.8L172.3,316.3
					L172.3,316.3z"/>
				<path class="st27" d="M71.2,208.5c0,0,20.3,65.7,27.8,107.7"/>
				<path class="st27" d="M45.5,259.3c0,0,13.7,30.6,40.9,56.9"/>
				<path class="st27" d="M113.9,232.6c0,0,9.4,39.7,7.4,83.7"/>
				<path class="st27" d="M150.5,269.3c0,0-1.5,22-4.9,47"/>
			</g>
			<line class="st28" x1="22.6" y1="316.3" x2="184.3" y2="316.3"/>
		</g>
		<g>
			<path class="st21" d="M80.4,373c7.5,0,13.6,2.4,13.6,5.4S411.9,442,404.4,442c-7.5,0-337.6-60.6-337.6-63.6S72.9,373,80.4,373z"
				/>
			<path class="st21" d="M59.1,373c7.5,0,13.6,2.4,13.6,5.4S390.6,442,383.1,442c-7.5,0-337.6-60.6-337.6-63.6S51.6,373,59.1,373z"
				/>
			<g>
				<path class="st0" d="M62.6,254.2l5.7-1.1c0,0,5.1,3,5.9,8.6c0.8,5.6,2,31.8,2,31.8L64.2,293L62.6,254.2z"/>
				<path class="st29" d="M78.7,364.7c0,0,0.1,5.2,1.7,7.6c1.6,2.4,5.6,4.3,5.6,4.3s3.7,0.6,2.9,1.5s-15.4,0-16.8,0s0.9-3.9,1.2-5.1
					s0.2-8.4,0.2-8.4H78.7z"/>
				<path class="st29" d="M60.6,364.7c0,0-1.6,5.2,0,7.6c1.6,2.4,5.6,4.3,5.6,4.3s3.7,0.6,2.9,1.5s-15.4,0-16.8,0s0.9-3.9,1.2-5.1
					s1.9-8.4,1.9-8.4H60.6z"/>
				<path class="st22" d="M56.7,291.2h22.9c0,0,3.9,29.3,3.1,45c-0.8,15.7-2.6,30.2-2.6,30.2h-8.4l1.3-29.8l-3.3-22
					c0,0,0,27.8-7.7,51.8h-7.9l5.2-31.7L56.7,291.2z"/>
				<path class="st23" d="M69.8,304.8c-1.1,0,0,9.7,0,9.7l3.3,22C75.1,327.5,70.8,304.8,69.8,304.8z"/>
				<path class="st23" d="M72.8,341.5l-1.1,24.9h8.4c0,0,0.5-4.3,1.1-10.8L72.8,341.5z"/>
				<path class="st9" d="M95.8,269.3c0,0,1.5-1.3,1.7-1.8s0-1.3,1.8-2.4c1.8-1,2.7-1.1,2.6-0.8c0,0.3-2.2,1.1-1.7,1.5s3.7,0.3,4,0.1
					c0.3-0.2,2.1-1.5,2.5-1s-1,2.2-1.4,2.8c-0.5,0.7-3.5,2.4-6.2,2.5c-2.7,0.2-3,1.3-3,1.3L95.8,269.3z"/>
				<path class="st30" d="M67.9,253.5c0,0,2.8,1.1,4.1,4.8c1.3,3.8,2,7.4,1.6,10.9s0.3,10.8,0.7,15.1s-0.6,11,1.1,11.2
					s3.8,0.4,4.8-0.8s0-9.2,0-9.2s17.8-13.8,17.9-14.5s-1-3-1.8-2.8s-16,8.1-16,8.1s-0.3-6.4-1.2-9.8c-0.9-3.3-4.2-10.7-5.9-11.7
					s-5.8-2.1-5.8-2.1L67.9,253.5z"/>
				<path class="st29" d="M80.1,285.6c0,0,7-5.5,12.3-9.7c-1-1.8-8.5,2.8-9.7,2.5c-1.2-0.4,0.1-3.3,0.7-3.6l0,0
					c-1.9,1-3.2,1.6-3.2,1.6C80.4,278.7,80,283.6,80.1,285.6z"/>
				<path class="st7" d="M81.5,277l-5.9,1.2c-0.5,0.1-0.9-0.3-0.8-0.8l3.7-14.4c0.1-0.3,0.3-0.5,0.6-0.6l5.9-1.2
					c0.5-0.1,0.9,0.3,0.8,0.8l-3.7,14.4C82,276.7,81.8,277,81.5,277z"/>
				<path class="st8" d="M80.4,264.3c-0.1,0.5-0.4,0.8-0.8,0.7s-0.5-0.5-0.3-1c0.1-0.5,0.4-0.8,0.8-0.7
					C80.3,263.4,80.5,263.9,80.4,264.3z"/>
				<path class="st9" d="M69.4,275.7c0,0,1.7-0.8,2.3-1.3s3.4-3.9,4.3-4.2s2.8-1,3.1,0s-1.9,1.6-2.1,2c-0.2,0.3,1.1,0,1.2,0.2
					c0,0.3-1,0.5-1.4,0.9c-0.3,0.5-1.5,4-3.6,4c-2,0-3.8,1-3.8,1L69.4,275.7L69.4,275.7z"/>
				<path class="st24" d="M76.1,237.9c0.4,0.8,0.1,3.2-0.4,4.5s-0.8,3.9-0.8,3.9s-1.5,0.1-1.8,0.8s-1,2.8-2.4,3s-2,0.5-2,0.5
					l-0.5,4.1c0,0-3.2,1-5.5-1.1c0,0,0.9-4.7,1-6.8s0.8-9.5,4.3-10.7C71.5,234.8,76.1,237.9,76.1,237.9z"/>
				<path class="st30" d="M62.6,252.8c0,0,3.6,2.6,4.3,5.8c0.8,3.2,2,8.3,1.1,11.2s-0.7,5.9-0.7,5.9l3-1.4l0.4,4.2l-2.8,1.6
					c0,0-0.2,5.4,0,8.6c0.2,3.2,0.6,6.5-0.9,7.2s-11.6,0.7-12.7-0.7c-1.1-1.3,0.7-8.3,0.7-8.3s-3.8,2.1-6,0.7
					c-2.2-1.4-1.2-6.6,0-10.3s3.9-13.5,4.7-16.9C54.5,257.1,58.5,254,62.6,252.8z"/>
				<path class="st29" d="M59.8,264.9c0,0-2.7,11.6-2.8,12.9c-1.7,0.8-3.6,1.7-2.3,1.6c1.2-0.1,10.6-2.6,12.8-3.6v-2
					c0,0-6.4,3-7.6,2.2c-1.2-0.8-0.1-2.4,0.1-3.8S59.8,264.9,59.8,264.9z"/>
				<path class="st29" d="M62.8,284.7c2.4-1.4,3.6-3.8,3.6-3.8l-11.3,6.1c0,0-1.8,7-0.7,8.3c0.3,0.4,1.3,0.6,2.6,0.8
					C56.1,293.5,60.4,286.1,62.8,284.7z"/>
				<path class="st8" d="M66.5,232.7c-0.3-2.6-2.7-4.7-5.5-4.7c-3.1,0-5.6,2.4-5.6,5.3c0,2.9,2.5,5.3,5.6,5.3c0.6,0,1.1-0.1,1.6-0.2
					c-0.1,1.2-0.2,2.4-0.3,3.6c-0.2,3.1,1.2,4.9,1.2,4.9s2-4.7,4.8-4.9c1.1-0.1,1.5-3.4,3.5-3.4s4.2-0.9,4.2-0.9
					C74,233.3,69.5,231.8,66.5,232.7z"/>
			</g>
		</g>
		<line class="st13" x1="181.9" y1="298" x2="179.2" y2="306.9"/>
		<g>
			<g>
				<g>
					<polygon class="st8" points="229.6,364.2 116.1,364.2 102.1,294.8 215.6,294.8 					"/>
					<polygon class="st26" points="223.6,358.1 123.2,358.1 111.7,300.9 212.1,300.9 					"/>
				</g>
				<g>
					<polygon class="st7" points="119.4,364.2 116.1,364.2 102.1,294.8 105.4,294.8 					"/>
				</g>
				<line class="st31" x1="144.1" y1="358.1" x2="161.7" y2="300.9"/>
				<line class="st31" x1="178.3" y1="300.9" x2="160.7" y2="358.1"/>
				<line class="st31" x1="179.1" y1="314.9" x2="165.8" y2="358.1"/>
				<rect x="116.1" y="364.2" class="st7" width="179.7" height="6.3"/>
				<rect x="182.5" y="364.2" class="st8" width="113.3" height="6.3"/>
				<line class="st32" x1="116.1" y1="364.2" x2="295.8" y2="364.2"/>
			</g>
			<polygon class="st33" points="147.5,358.4 188.7,358.4 198.5,346.2 206.8,352.3 234.1,321.4 241.2,327.6 244.7,303.3 
				222.1,312.2 226.5,315.8 204.7,335.7 188.9,323.2 			"/>
			<line class="st3" x1="106.8" y1="370.3" x2="311.3" y2="370.3"/>
		</g>
		<g>
			<path class="st33" d="M287.4,312.8c1.4,0.4,2.7,0.9,3.9,1.5c1.2,0.7,2.2,1.4,3,2.2c0.8,0.8,1.5,1.7,2,2.6
				c0.5,0.9,0.7,1.8,0.8,2.6c0,0.3-0.1,0.5-0.3,0.7c-0.2,0.2-0.4,0.3-0.7,0.3h-6.3c-0.4,0-0.8-0.1-1.1-0.2c-0.3-0.1-0.6-0.3-0.8-0.6
				c-0.1-0.1-0.2-0.3-0.5-0.5c-0.2-0.2-0.5-0.5-0.9-0.7c-0.4-0.2-0.9-0.4-1.4-0.6c-0.6-0.2-1.3-0.3-2.1-0.3c-0.6,0-1.2,0-1.8,0.1
				c-0.6,0.1-1.1,0.2-1.5,0.4c-0.4,0.2-0.8,0.4-1.1,0.7c-0.3,0.3-0.4,0.7-0.4,1.2s0.2,0.9,0.5,1.2c0.3,0.3,0.8,0.6,1.5,0.9
				c0.7,0.3,1.7,0.5,2.9,0.8c1.2,0.3,2.7,0.6,4.4,0.9c1.8,0.4,3.3,0.8,4.6,1.3c1.3,0.5,2.4,1.2,3.3,2c0.9,0.8,1.5,1.8,2,2.9
				c0.4,1.1,0.6,2.4,0.6,3.9c0,1.3-0.3,2.6-0.8,3.7c-0.5,1.1-1.2,2.1-2.2,3s-2,1.6-3.4,2.2c-1.3,0.6-2.7,1-4.3,1.2v3.4
				c0,0.4-0.1,0.7-0.4,0.9s-0.6,0.4-0.9,0.4h-6.3c-0.4,0-0.7-0.1-0.9-0.4c-0.3-0.3-0.4-0.6-0.4-0.9v-3.5c-1.5-0.4-2.9-0.9-4.1-1.5
				c-1.2-0.7-2.3-1.4-3.2-2.2c-0.9-0.8-1.6-1.7-2-2.7c-0.5-1-0.7-2-0.8-2.9c0-0.3,0.1-0.5,0.3-0.7c0.2-0.2,0.4-0.3,0.7-0.3h6.3
				c0.4,0,0.8,0.1,1.1,0.2c0.3,0.1,0.5,0.3,0.8,0.5c0.1,0.1,0.3,0.3,0.6,0.6c0.3,0.3,0.6,0.6,1,0.9c0.4,0.3,1,0.6,1.6,0.8
				c0.7,0.2,1.5,0.3,2.4,0.3c1.7,0,3.1-0.2,4.2-0.6c1.1-0.4,1.7-1,1.7-2c0-0.5-0.2-0.9-0.6-1.2c-0.4-0.3-1-0.6-1.9-0.9
				c-0.8-0.3-1.9-0.5-3.2-0.8c-1.3-0.3-2.8-0.6-4.6-1c-3.3-0.7-5.7-1.9-7.2-3.5c-1.5-1.6-2.3-3.8-2.3-6.6c0-1.1,0.2-2.2,0.6-3.2
				c0.4-1,1-2,1.8-2.9s1.7-1.6,2.9-2.3c1.1-0.6,2.4-1.1,3.9-1.5v-3.5c0-0.4,0.1-0.7,0.4-0.9c0.3-0.3,0.6-0.4,0.9-0.4h6.3
				c0.4,0,0.7,0.1,0.9,0.4c0.3,0.3,0.4,0.6,0.4,0.9L287.4,312.8L287.4,312.8z"/>
		</g>
	</g>
</g>
</svg>
