<?xml version="1.0" encoding="utf-8"?>
<!-- Generator: Adobe Illustrator 25.0.0, SVG Export Plug-In . SVG Version: 6.00 Build 0)  -->
<svg version="1.1" id="Layer_1" xmlns="http://www.w3.org/2000/svg" xmlns:xlink="http://www.w3.org/1999/xlink" x="0px" y="0px"
	 viewBox="0 0 710 365.5" style="enable-background:new 0 0 710 365.5;" xml:space="preserve">
<style type="text/css">
	.st0{fill:#5E732F;}
	.st1{fill:#79943C;}
	.st2{fill:none;stroke:#292E4A;stroke-miterlimit:10;}
	.st3{fill:#A6B1ED;}
	.st4{fill:#FF7700;}
	.st5{fill:none;stroke:#FFFFFF;stroke-width:0.98;stroke-miterlimit:10;}
	.st6{fill:#6470B5;}
	.st7{fill:#292E4A;}
	.st8{fill:#CC9B74;}
	.st9{fill:#F9CCA9;}
	.st10{fill:none;stroke:#CC9B74;stroke-width:0.97;stroke-linecap:round;stroke-linejoin:round;}
	.st11{fill:none;stroke:#6470B5;stroke-width:0.97;stroke-miterlimit:10;}
	.st12{fill:none;stroke:#FFFFFF;stroke-width:0.97;stroke-miterlimit:10;}
	.st13{fill:none;stroke:#292E4A;stroke-width:0.97;stroke-miterlimit:10;}
	.st14{fill:#FFFFFF;}
	.st15{fill:none;stroke:#FF7700;stroke-width:0.97;stroke-linecap:round;stroke-linejoin:round;}
	.st16{fill:#995417;}
	.st17{fill:none;stroke:#FFFFFF;stroke-width:0.97;stroke-linecap:round;stroke-linejoin:round;}
	.st18{fill:none;stroke:#995417;stroke-width:0.97;stroke-miterlimit:10;}
	.st19{fill:#8EAD46;}
	.st20{fill:none;stroke:#525730;stroke-miterlimit:10;}
	.st21{fill:#C3C4C9;}
	.st22{fill:#3F4152;}
	.st23{fill:#2D2F3B;}
	.st24{fill:#F9C8A2;}
	.st25{fill:#495285;}
	.st26{fill:#FFD817;}
	.st27{fill:none;stroke:#525730;stroke-width:0.88;stroke-miterlimit:10;}
	.st28{fill:none;stroke:#292E4A;stroke-width:0.88;stroke-miterlimit:10;}
	.st29{fill:#A83E63;}
	.st30{fill:#DC5181;}
	.st31{fill:none;stroke:#FFFFFF;stroke-width:0.9;stroke-miterlimit:10;}
	.st32{fill:none;stroke:#6470B5;stroke-width:0.9;stroke-linecap:round;stroke-linejoin:round;}
	.st33{fill:#FFA200;}
</style>
<g id="Layer_2_1_">
	<g id="Layer_1-2">
		<g id="OBJECTS">
			<path class="st0" d="M541.3,238.2H213.8c0,0,18.4-7.1,38.4-26.6s27.9-24.3,52.5-28.9s20.6-19.4,50.3-22.3
				c29.7-2.9,48.6-16.6,55.4-22.9c6.9-6.3,37.7,2.2,44.6,27.4s20.6,16.7,34.9,34.9S537.3,213.6,541.3,238.2z"/>
			<path class="st1" d="M451.5,256.4h113.7c0,0,13.5-48.1,6.4-53s-13.3,15.2-20.1-9.1c-6.8-24.2-12.1-53.9-33.8-49.9
				c-21.7,4-23.7,65.3-38.7,67.9S449,238.4,451.5,256.4z"/>
			<line class="st2" x1="440.7" y1="256.4" x2="556.5" y2="256.4"/>
			<path class="st3" d="M190.8,77.7h130.7c0,0-19.3-5.6-22.5-12.5s-5.5-11.2-11.9-11.8s-9.4,0.6-15.2-8.3s-14.4-12.3-21.6-9.9
				s-12.9,23.5-24.3,25.9s-15.2,0.3-18.9,2.4C203.4,65.7,194.3,76.9,190.8,77.7z"/>
			<path class="st3" d="M438.3,75.7h132c0,0,3.2-12.9-4.9-16.9s-9.9,3.4-17.1-1.4s2.3-34.1-10.8-37.2c-13.1-3.1-30,30-45.7,29.2
				c-15.6-0.9-20.6-2.9-26.4,1.7S444.3,74.9,438.3,75.7z"/>
			<rect x="414.2" y="60.4" class="st4" width="77" height="98.5"/>
			<line class="st5" x1="425.6" y1="78.1" x2="470.3" y2="78.1"/>
			<line class="st5" x1="425.6" y1="87.1" x2="479.8" y2="87.1"/>
			<line class="st5" x1="425.6" y1="96.1" x2="479.8" y2="96.1"/>
			<line class="st5" x1="425.6" y1="105.1" x2="479.8" y2="105.1"/>
			<line class="st5" x1="425.6" y1="114.1" x2="479.8" y2="114.1"/>
			<line class="st5" x1="425.6" y1="123.1" x2="479.8" y2="123.1"/>
			<line class="st5" x1="425.6" y1="132.1" x2="479.8" y2="132.1"/>
			<line class="st5" x1="425.6" y1="141.1" x2="479.8" y2="141.1"/>
			<path class="st6" d="M399.3,140.4v-20.7l-13,0.4c-0.8-3.1-2-6-3.6-8.7l9.4-8.9l-14.6-14.6l-8.9,9.4c-2.7-1.6-5.7-2.8-8.7-3.6
				l0.4-13h-20.7l0.4,13c-3.1,0.8-6,2.1-8.8,3.6l-8.9-9.4l-14.6,14.6l9.4,8.9c-1.6,2.8-2.8,5.7-3.6,8.7l-13-0.4v20.7l13-0.4
				c0.8,3.1,2.1,6,3.6,8.7l-9.4,8.9l14.6,14.6l8.9-9.4c2.8,1.6,5.7,2.8,8.8,3.6l-0.4,13h20.7l-0.4-13c3.1-0.8,6-2,8.7-3.6l8.9,9.4
				l14.6-14.6l-9.4-8.9c1.6-2.8,2.8-5.7,3.6-8.8L399.3,140.4z M349.9,142.9c-7.1,0-12.8-5.7-12.8-12.8c0-7.1,5.7-12.8,12.8-12.8
				c7.1,0,12.8,5.7,12.8,12.8c0,0,0,0,0,0C362.7,137.2,357,142.9,349.9,142.9C349.9,142.9,349.9,142.9,349.9,142.9z"/>
			<path class="st7" d="M349.9,104.2c-14.3,0-25.8,11.6-25.8,25.8c0,14.3,11.5,25.8,25.8,25.8c14.3,0,25.8-11.6,25.8-25.8
				c0,0,0,0,0,0C375.7,115.8,364.2,104.3,349.9,104.2z M349.9,142.9c-7.1,0-12.8-5.7-12.8-12.8c0-7.1,5.7-12.8,12.8-12.8
				c7.1,0,12.8,5.7,12.8,12.8c0,0,0,0,0,0C362.7,137.2,357,142.9,349.9,142.9C349.9,142.9,349.9,142.9,349.9,142.9z"/>
			<path class="st3" d="M403,59.4V46.8l-7.9,0.2c-0.5-1.9-1.2-3.6-2.2-5.3l5.7-5.4l-8.9-8.9l-5.4,5.7c-1.7-1-3.5-1.7-5.3-2.2
				l0.2-7.9h-12.5L367,31c-1.9,0.5-3.6,1.2-5.3,2.2l-5.4-5.7l-8.9,8.9l5.7,5.4c-1,1.7-1.7,3.5-2.2,5.3l-7.9-0.2v12.6l7.9-0.2
				c0.5,1.9,1.2,3.6,2.2,5.3l-5.7,5.4l8.9,8.9l5.4-5.7c1.7,1,3.5,1.7,5.3,2.2l-0.2,7.9h12.6l-0.2-7.9c1.9-0.5,3.6-1.2,5.3-2.2
				l5.4,5.7l8.9-8.9l-5.7-5.4c1-1.7,1.7-3.5,2.2-5.3L403,59.4z M373,60.9c-4.3,0-7.8-3.5-7.8-7.8s3.5-7.8,7.8-7.8
				c4.3,0,7.8,3.5,7.8,7.8S377.3,60.9,373,60.9L373,60.9z"/>
			<path class="st8" d="M377.2,222.3c-1.2,4.5-3.6,10.3-4.2,15.4s9,8.1,10.2,5.5c0.2-0.3-2-2.1-0.2-6.9c2.2-5.7,3.3-8.2,2.3-12.1
				C384.5,221.1,378,219.5,377.2,222.3z"/>
			<path class="st8" d="M453.4,143.5c0,0-15.1,7.8-24.8,6.8s-33.5-3.9-42.3,5s-43.7,51.9-42,55c1.7,3.1,40.6,34,48.8,31.3
				s44.7-39.8,54-45.4s22.9-12.4,22.9-12.4L453.4,143.5z"/>
			<path class="st9" d="M302.9,134.1c0,0,26.1,13.9,37.3,14.7c11.2,0.7,30.8-1,44.9,2.9c14.1,3.9,2,10.7,7,15.6s39.9,25.2,45.3,28.7
				s6.8,8.1,3.1,11.2s-8,2.2-14.8-1.7s-19.7-13.1-20.4-11.2c-0.7,1.9,21.9,16.1,25,18.7s3.6,7-1.5,9.7s-9.5,2.9-13.8,0
				s-19.2-13.8-20.9-12.1c-1.7,1.7,7.8,6.8,13.9,11.4c5.7,4.2,9.9,5.6,10.4,9s-4.8,9.4-13.6,6.6c-5.2-1.7-19-11.9-21-10.4
				s20.1,10.4,19.8,13.9s-5,9.5-18.4,3.1c-8.2-3.9-57.9-38.9-63-42.8s-49-27-49-27L302.9,134.1z"/>
			<path class="st10" d="M408.7,181.8c0,0-1.7,7.4-7.5,10.8c0.6,4.4-2.7,13-9.7,15.4c-0.6,4.9-4.8,12.9-9.8,14.6"/>
			<path class="st8" d="M352.8,157.5c-0.1-2.1,9.9-3.1,16.7-5.3s18.6-5.9,28.3-5.5s21.5,3,29.6,3.4s2.1,9.5-5.7,11.8
				s-24.8,8.1-29.7,5.4s-9.3-3.9-16.9-3.2S353.1,162.6,352.8,157.5z"/>
			<ellipse transform="matrix(0.9321 -0.3623 0.3623 0.9321 -9.2076 200.8603)" class="st7" cx="531" cy="125" rx="26.6" ry="63"/>
			<line class="st11" x1="539.7" y1="162.3" x2="560.7" y2="152.9"/>
			<path class="st7" d="M463.5,133.5c0,0-7.3,2.8-10.2,3.8c-2,0.6-4.3,1.5-5.6,2c-0.5,0.2-0.8,0.8-0.5,1.3c0,0,0,0,0,0
				c1.9,4.2,9.6,21.6,11.5,26c2.1,5,7.9,20.8,8.7,21.7s18-6,18-6L463.5,133.5z"/>
			<path class="st6" d="M459.8,131.6l68.8-39.2c0,0,6.8,9.2,6.3,19.1s8.5,15.2,8.3,32.2c-0.1,7.8,6.1,14.8,6.1,14.8l-65.6,28.4
				L459.8,131.6z"/>
			<line class="st12" x1="536.3" y1="87.6" x2="459.8" y2="131.6"/>
			<line class="st13" x1="470" y1="155.2" x2="507" y2="138.3"/>
			<path class="st14" d="M481.3,143.5c0,2.1-1.7,3.8-3.8,3.8c-2.1,0-3.8-1.7-3.8-3.8c0-2.1,1.7-3.8,3.8-3.8l0,0
				C479.6,139.7,481.3,141.4,481.3,143.5z"/>
			<path class="st7" d="M476.8,142.4c0,0.2-0.1,0.4-0.3,0.4c-0.2,0-0.4-0.1-0.4-0.3c0,0,0-0.1,0-0.1c0-0.2,0.2-0.3,0.4-0.3
				C476.7,142.2,476.8,142.3,476.8,142.4z"/>
			<path class="st7" d="M479,142.4c0,0.2-0.2,0.4-0.4,0.4s-0.4-0.2-0.4-0.4s0.2-0.4,0.4-0.4l0,0C478.8,142.1,479,142.2,479,142.4z"
				/>
			<path class="st7" d="M476.8,144.5c0,0.2-0.2,0.4-0.4,0.4s-0.4-0.2-0.4-0.4s0.2-0.4,0.4-0.4S476.8,144.3,476.8,144.5L476.8,144.5z
				"/>
			<path class="st7" d="M479,144.5c0,0.2-0.2,0.4-0.4,0.4c-0.2,0-0.4-0.2-0.4-0.4c0-0.2,0.2-0.4,0.4-0.4
				C478.8,144.1,479,144.3,479,144.5z"/>
			<circle class="st14" cx="492.3" cy="137.3" r="3.8"/>
			<path class="st7" d="M491.5,136.3c0,0.2-0.2,0.4-0.4,0.4c-0.2,0-0.4-0.2-0.4-0.4c0-0.2,0.2-0.4,0.4-0.4c0,0,0,0,0,0
				C491.4,135.9,491.5,136.1,491.5,136.3C491.5,136.3,491.5,136.3,491.5,136.3z"/>
			<path class="st7" d="M493.7,136.3c0,0.2-0.2,0.4-0.4,0.4s-0.4-0.2-0.4-0.4s0.2-0.4,0.4-0.4l0,0
				C493.6,135.9,493.7,136.1,493.7,136.3C493.7,136.3,493.7,136.3,493.7,136.3z"/>
			<path class="st7" d="M491.5,138.3c0,0.2-0.1,0.4-0.3,0.4c-0.2,0-0.4-0.1-0.4-0.3c0,0,0-0.1,0-0.1c0-0.2,0.2-0.3,0.4-0.3
				C491.4,138,491.5,138.1,491.5,138.3z"/>
			<path class="st7" d="M493.7,138.3c0,0.2-0.2,0.4-0.4,0.4s-0.4-0.2-0.4-0.4s0.2-0.4,0.4-0.4l0,0
				C493.6,137.9,493.7,138.1,493.7,138.3z"/>
			
				<ellipse transform="matrix(0.3623 -0.9321 0.9321 0.3623 35.3691 301.6201)" class="st7" cx="238.1" cy="125" rx="63" ry="26.6"/>
			<line class="st15" x1="229.4" y1="162.3" x2="208.4" y2="152.9"/>
			<path class="st16" d="M305.9,132.7c0,0,6.8,3.8,9.5,5c1.7,0.8,4.2,1.9,5.4,2.4c0.5,0.2,0.8,0.8,0.5,1.3c0,0,0,0,0,0
				c-1.9,4.2-9.1,20.7-11,25.1c-2.1,5-10.6,23-11.4,23.9s-15.3-8.2-15.3-8.2L305.9,132.7z"/>
			<path class="st4" d="M309.2,131.6l-68.8-39.2c0,0-0.6,12.6-10.3,18.1c-8.6,4.8-17.2,15-10.3,30.5c4.4,9.9,0,17.4,0,17.4
				l65.6,28.4L309.2,131.6z"/>
			<line class="st17" x1="232.8" y1="87.6" x2="309.2" y2="131.6"/>
			<line class="st18" x1="299.1" y1="155.2" x2="262.1" y2="138.3"/>
			<path class="st14" d="M287.8,143.5c0,2.1,1.7,3.8,3.8,3.8c2.1,0,3.8-1.7,3.8-3.8c0-2.1-1.7-3.8-3.8-3.8S287.8,141.4,287.8,143.5
				L287.8,143.5z"/>
			<path class="st7" d="M292.3,142.4c0,0.2,0.1,0.4,0.3,0.4c0.2,0,0.4-0.1,0.4-0.3c0,0,0-0.1,0-0.1c0-0.2-0.2-0.3-0.4-0.3
				C292.4,142.2,292.3,142.3,292.3,142.4z"/>
			<path class="st7" d="M290.1,142.4c0,0.2,0.2,0.4,0.4,0.4c0.2,0,0.3-0.2,0.3-0.4c0-0.2-0.2-0.3-0.3-0.3
				C290.3,142.1,290.1,142.2,290.1,142.4z"/>
			<path class="st7" d="M292.3,144.5c0,0.2,0.2,0.4,0.4,0.4s0.4-0.2,0.4-0.4s-0.2-0.4-0.4-0.4S292.3,144.3,292.3,144.5L292.3,144.5z
				"/>
			<path class="st7" d="M290.1,144.5c0,0.2,0.2,0.4,0.4,0.4c0.2,0,0.3-0.2,0.3-0.4c0-0.2-0.2-0.3-0.3-0.3
				C290.3,144.1,290.1,144.3,290.1,144.5z"/>
			<circle class="st14" cx="276.8" cy="137.3" r="3.8"/>
			<path class="st7" d="M277.5,136.3c0,0.2,0.2,0.4,0.4,0.4c0.2,0,0.4-0.2,0.4-0.4c0-0.2-0.2-0.4-0.4-0.4c0,0,0,0,0,0
				C277.7,135.9,277.6,136.1,277.5,136.3C277.6,136.3,277.5,136.3,277.5,136.3z"/>
			<path class="st7" d="M275.4,136.3c0,0.2,0.2,0.4,0.4,0.4s0.4-0.2,0.4-0.4s-0.2-0.4-0.4-0.4C275.5,135.9,275.4,136.1,275.4,136.3
				C275.4,136.3,275.4,136.3,275.4,136.3z"/>
			<path class="st7" d="M277.5,138.3c0,0.2,0.1,0.4,0.3,0.4c0.2,0,0.4-0.1,0.4-0.3c0,0,0-0.1,0-0.1c0-0.2-0.2-0.3-0.4-0.3
				C277.7,138,277.6,138.1,277.5,138.3z"/>
			<path class="st7" d="M275.4,138.3c0,0.2,0.2,0.4,0.4,0.4s0.4-0.2,0.4-0.4s-0.2-0.4-0.4-0.4S275.4,138.1,275.4,138.3
				C275.4,138.3,275.4,138.3,275.4,138.3z"/>
			<path class="st8" d="M325.7,205c0-5.2,4.5-21.7,8.9-21.2s7.1,3.7,6.6,9.1c-0.5,5.3-5.5,16.5-4.5,18.3c1,1.8,3.7,2.3,2.3,3.2
				S325.7,212.8,325.7,205z"/>
			<path class="st8" d="M343.6,220.4c-1.6-2.8-1.8-7.9,0-13.3s6.5-17.4,8.1-17.8c3.6-0.8,7.9,2.6,9.1,7.1s-9,24.3-7.5,25.8
				c1.5,1.5,2.4,1.9,2,2.6C353.9,227.3,346,224.6,343.6,220.4z"/>
			<path class="st8" d="M358.6,229.6c-0.4-2.8,4.2-20.7,7.5-21.5s7,3.2,7.5,7.1s-4.8,17.1-4.1,18.2c0.7,1.1,2.1,1.8,2,2.2
				C370.7,239.1,359.5,235.7,358.6,229.6z"/>
			<path class="st19" d="M485.4,271.4h78.9c0,0,14.2-37,13.8-49.1s-6.9-8.6-3-24.8s10.3-43.4-1.3-45.1s-34.1,53.5-44.9,56.9
				s-21.1,10.4-30.2,26.7S485.4,271.4,485.4,271.4z"/>
			<path class="st20" d="M575.1,152.7c0,0-21.8,73.4-45.5,118.7"/>
			<path class="st20" d="M543.2,192c0,0-10.2,41.4-21.5,79.4"/>
			<path class="st20" d="M574.2,201.7c0,0-20.9,47.5-35.5,69.8"/>
			<line class="st2" x1="465.5" y1="271.4" x2="577" y2="271.4"/>
			<path class="st21" d="M537.9,316.6c7.5,0,13.6,2.4,13.6,5.4s317.9,63.6,310.4,63.6S524.3,324.9,524.3,322
				S530.4,316.6,537.9,316.6z"/>
			<path class="st21" d="M486.9,316.6c7.5,0,13.6,2.4,13.6,5.4s317.9,63.6,310.4,63.6S473.3,324.9,473.3,322
				S479.4,316.6,486.9,316.6z"/>
			<path class="st8" d="M504.4,209.2h-9.2c-0.4,0-0.8-0.3-0.9-0.6l-6-15.5c-0.1-0.3,0-0.7,0.4-0.8c0.1,0,0.1,0,0.2,0h9.2
				c0.4,0,0.8,0.3,0.9,0.6l6,15.5c0.1,0.3,0,0.7-0.3,0.8C504.5,209.2,504.4,209.2,504.4,209.2z"/>
			<path class="st6" d="M539.3,314.1l3.1,3.4c0,0-5.1,4.2-6.4,4.6s-3.8,0-5.1,0c-1.3,0,2-1.1,3.1-2.3s2.1-5.7,2.1-5.7L539.3,314.1z"
				/>
			<path class="st6" d="M491.8,314.3c0,0,2.8,7.7-0.4,7.7h-8.3c-1.4,0-9-4.4-8.2-5.3s4.8,0.2,6,0.1s4.1-0.3,5.3-1.4s1.2-1.5,1.2-1.5
				L491.8,314.3z"/>
			<path class="st22" d="M505.2,237.7c0,0-13.2,44.2-19.7,77.1h7.2c0,0,16.2-44.6,19.6-50.6l1.7,20c0,0,13.8,22.9,21.5,30.6h5.1
				c0,0-14.1-26.4-15-36.6c-0.6-7.7-0.7-15.4-0.3-23.1c0.3-5.8,2.3-13.5-0.7-17.4L505.2,237.7z"/>
			<path class="st23" d="M540.7,314.8c0,0-4.3-8-8.2-16.8l0,0c-3.1-3-7.9-7.1-11.7-9.1c-2.4-1.3-4.6-2.9-6.6-4.7
				c0,0,13.8,22.9,21.5,30.6H540.7z"/>
			<path class="st24" d="M485.4,216.3c-1.4-0.9-2.9-1.6-4.4-2.4c-1.5-0.6-4.3-1.9-5.5-2s-2.1,0.1-1.4,0.9s3.2,2.8,3.5,3.4
				s-2.1-0.1-2.6,0.3s1,1.3,2,1.4s2.9-0.1,4.1,0.2s4.4,1.5,4.4,1.5V216.3z"/>
			<path class="st25" d="M512.4,203.1c0,0-5.2,7.6-6,8.9s-2.2,4.1-3.4,6c-0.4,0.6-1.4,2.5-2.3,2.6s-16.3-5.5-16.3-5.5l-1.3,4.7
				c0,0,3.1,1.2,5,2.3s6.6,3.3,8.2,3.9s7.7,3,9.1,2s6.5-9.5,6.5-9.5L512.4,203.1z"/>
			<path class="st24" d="M496,206.8c0,0,0-4.7-0.5-5.7s-2-5.2-2.4-5s0.6,3,0,3.2s-3.4-4.5-4-4.5s-0.1,6.8,1.1,8.2s2.8,2.9,2.8,3.2
				s1.1,3.3,1.1,3.3L496,206.8z"/>
			<path class="st24" d="M516.1,182.4c0,0-1.5,8.1-1.2,9.5s2.8,1.4,3.7,2.8s0.6,5.5,0.6,5.5h7.1c-0.3-2.2-0.4-4.5-0.3-6.7
				c0.3-1.8,1.9-8.8,0-10.8S517.1,181.3,516.1,182.4z"/>
			<path class="st16" d="M513,182c0.6,3,7.1,1.8,8.3,2.5c1.2,0.7,0.9,3.8,1.3,4.6s1-1.1,2.1-0.4s0.5,2.9-0.7,2.9
				c1,1.5,1.2,2.9,2,2.8s2.1-3.7,2.2-6.1c0.1-2.5-1-4.2-0.7-5.6c0.3-1.5-2.2-2.9-4.4-2.9C521,179.6,512.3,178.5,513,182z"/>
			<path class="st6" d="M516.8,200.2c0,0-1-1,1-1.4s10.2-0.2,10.5,0.7s-1,1.6,0,3.2c0.9,1.6,1.2,8.3,0.1,14.4s-3.6,13.3-2.9,15.9
				s2.1,6.3-0.5,6.3h-18.3c-2.9,0-2.6-1.1-1.9-3.7c0.3-1.2,0.6-2.5,0.8-3.8c0,0-2.6,1.4-3.6-0.8s-9.5-22.7-9.1-23.4s2.7-2.3,3.3-1.7
				s7.7,12.3,8.9,13c0.9,0.5,3.9-2.6,3.9-2.6s2-8.3,2.4-10.1C511.8,203.5,513.6,200.2,516.8,200.2z"/>
			<path class="st25" d="M509,216.3c1.3-1.4,2.7-2.8,4.2-4.1c1.7-1.4,3.4-2.9,4.9-4.5c0.8-1-0.6-0.1-1.7,0.6s-3.2,2.8-4.2,3.5
				c-1,0.8-2.6,2.3-2.6,2.3L509,216.3z"/>
			<path class="st25" d="M505.5,231.7c0,0,3.2-2.7,4-3.5s4.5-3.5,5.8-4.7c1.3-1.1,4.5-4.1,5.3-4.7s1.6-2.5,2.1-1.9s-1.2,3.1-2.1,3.7
				s-6.4,5-7.8,6.3c-1.4,1.3-7.7,6.6-7.7,6.6L505.5,231.7z"/>
			<path class="st23" d="M512.4,264.2c0,0,1.9-6.7,3.6-8.4c1.5-1.6,2.6-3.4,3.4-5.4c1.6,1.6-1.6,3.7-2.6,6.9
				c-1,3.2-4.1,11.5-4.1,11.5L512.4,264.2z"/>
			<path class="st26" d="M586.3,98.6c-9.3,3.4-12.1,6.2-15.5,15.5c-3.4-9.3-6.2-12.1-15.5-15.5c9.3-3.4,12.1-6.2,15.5-15.5
				C574.3,92.4,577,95.2,586.3,98.6z"/>
			<path class="st26" d="M208.4,98.6c-9.3,3.4-12.1,6.2-15.5,15.5c-3.4-9.3-6.2-12.1-15.5-15.5c9.3-3.4,12.1-6.2,15.5-15.5
				C196.3,92.4,199.1,95.2,208.4,98.6z"/>
			<path class="st26" d="M577.2,135.9c-3.8,1.4-4.9,2.5-6.3,6.3c-1.4-3.8-2.5-4.9-6.3-6.3c3.8-1.4,4.9-2.5,6.3-6.3
				C572.3,133.4,573.4,134.5,577.2,135.9z"/>
			<path class="st26" d="M294.1,102.4c-3.8,1.4-4.9,2.5-6.3,6.3c-1.4-3.8-2.5-4.9-6.3-6.3c3.8-1.4,4.9-2.5,6.3-6.3
				C289.2,99.9,290.3,101.1,294.1,102.4z"/>
			<path class="st26" d="M221.5,49.6c-3.8,1.4-4.9,2.5-6.3,6.3c-1.4-3.8-2.5-4.9-6.3-6.3c3.8-1.4,4.9-2.5,6.3-6.3
				C216.5,47.1,217.6,48.2,221.5,49.6z"/>
			<path class="st1" d="M301.6,259.8c0,0-10.5-10.3-12-22.3s-1.5-24.6-11.7-25.8c-10.3-1.2-7,18.8-10.8,19.1
				c-3.8,0.3-5.6-53.9-20.8-54.8s-12.2,22.6-10,35.2c1.4,7.9,1.7,11.8-2.7,11.8c-7.4,0-7-21.7-9.6-39.3s-7.6-31.1-26.7-31.1
				s-7.9,26.3-1.7,37.5c6.2,11.1,13.8,24.3,7,26.1s-11.7-16.4-22.8-15.2s-15.8,22-5,33.1s-17,4.4-15.5,25.8H301.6z"/>
			<path class="st27" d="M200.5,152.1c0,0,20.2,65.6,27.8,107.7"/>
			<path class="st27" d="M174.8,202.9c10.3,21.2,24.2,40.4,41,56.9"/>
			<path class="st27" d="M243.2,176.1c0,0,9.4,39.7,7.4,83.7"/>
			<path class="st27" d="M279.9,212.8c0,0-1.5,22-4.9,47"/>
			<line class="st28" x1="152" y1="259.9" x2="313.6" y2="259.9"/>
			<path class="st21" d="M209.7,316.6c7.5,0,13.6,2.4,13.6,5.4s317.9,63.6,310.4,63.6S196.1,324.9,196.1,322
				S202.2,316.6,209.7,316.6z"/>
			<path class="st21" d="M188.5,316.6c7.5,0,13.6,2.4,13.6,5.4s318,63.6,310.4,63.6c-7.5,0-337.6-60.6-337.6-63.5
				S181,316.6,188.5,316.6z"/>
			<path class="st14" d="M192,197.8l5.7-1.1c0,0,5.1,3,5.9,8.6c0.8,5.6,2,31.8,2,31.8l-12.1-0.6L192,197.8z"/>
			<path class="st29" d="M208.1,308.3c0,0,0.1,5.2,1.7,7.6c1.6,2.4,5.6,4.3,5.6,4.3s3.7,0.6,2.9,1.5s-15.4,0-16.8,0
				c-1.4,0,0.9-3.9,1.2-5.1s0.2-8.4,0.2-8.4H208.1z"/>
			<path class="st29" d="M190,308.3c0,0-1.6,5.2,0,7.6s5.6,4.3,5.6,4.3s3.7,0.6,2.9,1.5s-15.4,0-16.8,0s0.9-3.9,1.2-5.1
				c0.3-1.2,1.9-8.4,1.9-8.4H190z"/>
			<path class="st22" d="M186.1,234.8H209c0,0,3.9,29.3,3.1,45c-0.8,15.7-2.6,30.2-2.6,30.2h-8.4l1.3-29.8l-3.3-22
				c0,0,0,27.8-7.7,51.8h-7.9l5.2-31.7L186.1,234.8z"/>
			<path class="st23" d="M199.1,248.3c-1.1,0,0,9.7,0,9.7l3.3,22C204.5,271,200.2,248.3,199.1,248.3z"/>
			<path class="st23" d="M202.2,285l-1.1,24.9h8.4c0,0,0.5-4.3,1.2-10.8L202.2,285z"/>
			<path class="st8" d="M225.2,212.8c0.6-0.5,1.2-1.1,1.7-1.8c0.1-0.4,0-1.3,1.8-2.4c1.8-1,2.7-1.1,2.6-0.8s-2.3,1.1-1.7,1.5
				c1.3,0.3,2.7,0.4,4,0.1c0.3-0.2,2.1-1.5,2.5-1s-1,2.2-1.4,2.8s-3.6,2.4-6.2,2.5c-2.7,0.2-3,1.3-3,1.3L225.2,212.8z"/>
			<path class="st30" d="M197.2,197.1c2,1,3.4,2.7,4.1,4.8c1.3,3.5,1.9,7.2,1.6,10.9c-0.4,3.6,0.3,10.8,0.7,15.1
				c0.4,4.2-0.6,11,1.1,11.2s3.8,0.4,4.8-0.8s0-9.2,0-9.2s17.8-13.8,17.9-14.5c0.2-0.7-1-3-1.8-2.8s-16,8.1-16,8.1
				c-0.1-3.3-0.5-6.5-1.2-9.8c-0.9-3.3-4.2-10.7-5.9-11.6c-1.9-0.9-3.8-1.6-5.8-2.1L197.2,197.1z"/>
			<path class="st29" d="M209.5,229.1c0,0,7-5.5,12.3-9.7c-1-1.8-8.5,2.8-9.7,2.5s0.1-3.3,0.7-3.6l0,0l-3.2,1.6
				C209.8,222.3,209.3,227.1,209.5,229.1z"/>
			<path class="st6" d="M210.9,220.6l-5.9,1.2c-0.4,0.1-0.7-0.2-0.8-0.5c0-0.1,0-0.2,0-0.3l3.7-14.4c0.1-0.3,0.3-0.5,0.6-0.6
				l5.9-1.2c0.4-0.1,0.7,0.2,0.8,0.5c0,0.1,0,0.2,0,0.3l-3.7,14.4C211.4,220.3,211.1,220.5,210.9,220.6z"/>
			<path class="st7" d="M209.7,207.9c-0.1,0.4-0.4,0.8-0.8,0.7s-0.5-0.5-0.3-0.9s0.4-0.8,0.8-0.7S209.8,207.4,209.7,207.9z"/>
			<path class="st8" d="M198.7,219.3c0.8-0.4,1.6-0.8,2.3-1.3c0.6-0.5,3.4-3.9,4.3-4.2c0.9-0.3,2.8-1,3.1,0s-1.9,1.6-2.1,2
				c-0.2,0.4,1.1,0,1.2,0.2c0,0.2-1,0.5-1.4,0.9s-1.5,4-3.6,4c-1.3,0-2.7,0.4-3.8,1L198.7,219.3L198.7,219.3z"/>
			<path class="st24" d="M205.4,181.4c0.4,0.8,0.1,3.2-0.4,4.5c-0.4,1.3-0.7,2.6-0.8,3.9c0,0-1.5,0.1-1.8,0.8s-1,2.8-2.4,3
				c-0.7,0-1.4,0.2-2,0.4l-0.5,4.1c0,0-3.2,1-5.5-1.1c0.5-2.3,0.8-4.5,1-6.8c0.1-2.2,0.8-9.4,4.3-10.7
				C200.8,178.3,205.4,181.4,205.4,181.4z"/>
			<path class="st30" d="M192,196.4c0,0,3.6,2.6,4.3,5.8s2,8.3,1.1,11.2c-0.6,1.9-0.8,3.9-0.7,5.9l3-1.4l0.4,4.2l-2.8,1.6
				c0,0-0.2,5.4,0,8.6s0.6,6.5-0.9,7.2s-11.6,0.7-12.7-0.7c-1.1-1.3,0.7-8.3,0.7-8.3s-3.8,2.1-6,0.7s-1.2-6.6,0-10.3
				s3.9-13.5,4.7-16.9S187.8,197.6,192,196.4z"/>
			<path class="st29" d="M189.1,208.5c0,0-2.7,11.6-2.8,12.9c-1.7,0.8-3.6,1.7-2.3,1.6c4.3-0.9,8.6-2.1,12.8-3.6v-2
				c0,0-6.4,3-7.6,2.2s-0.1-2.4,0.1-3.8S189.1,208.5,189.1,208.5z"/>
			<path class="st29" d="M192.2,228.3c1.5-0.9,2.7-2.2,3.6-3.8l-11.3,6.1c0,0-1.8,7-0.7,8.3c0.8,0.5,1.7,0.8,2.6,0.8
				C185.4,237,189.7,229.7,192.2,228.3z"/>
			<path class="st7" d="M195.9,176.3c-0.2-3.1-2.9-5.3-6-5.1c-3.1,0.2-5.3,2.9-5.1,6c0.2,2.9,2.7,5.1,5.6,5.1c0.5,0,1.1-0.1,1.6-0.3
				c-0.1,1.2-0.2,2.4-0.3,3.6c-0.2,1.7,0.3,3.5,1.3,4.9c0,0,2-4.7,4.8-4.9c1.1-0.1,1.5-3.4,3.5-3.4c1.4-0.1,2.9-0.4,4.2-0.9
				C203.4,176.8,198.9,175.3,195.9,176.3z"/>
			<line class="st12" x1="311.3" y1="241.5" x2="308.5" y2="250.5"/>
			<polygon class="st7" points="359,307.7 245.4,307.7 231.4,238.4 345,238.4 			"/>
			<polygon class="st26" points="353,301.6 252.6,301.6 241,244.5 341.4,244.5 			"/>
			<polygon class="st6" points="248.8,307.7 245.4,307.7 231.4,238.4 234.8,238.4 			"/>
			<line class="st31" x1="273.5" y1="301.6" x2="291.1" y2="244.5"/>
			<line class="st31" x1="307.6" y1="244.5" x2="290" y2="301.6"/>
			<line class="st31" x1="308.5" y1="258.5" x2="295.2" y2="301.6"/>
			<rect x="245.4" y="307.7" class="st6" width="179.7" height="6.4"/>
			<rect x="311.8" y="307.7" class="st7" width="113.3" height="6.4"/>
			<line class="st32" x1="245.4" y1="307.7" x2="425.1" y2="307.7"/>
			<polygon class="st33" points="276.9,302 318.1,302 327.8,289.8 336.1,295.9 363.5,264.9 370.5,271.1 374,246.9 351.5,255.8 
				355.8,259.3 334,279.2 318.3,266.8 			"/>
			<line class="st2" x1="236.1" y1="313.8" x2="440.7" y2="313.8"/>
			<path class="st33" d="M416.8,256.4c1.4,0.3,2.7,0.8,3.9,1.5c1.1,0.6,2.1,1.3,3,2.2c0.8,0.7,1.5,1.6,2,2.6
				c0.5,0.8,0.7,1.7,0.8,2.6c0,0.3-0.1,0.6-0.3,0.8c-0.2,0.2-0.4,0.3-0.7,0.3h-6.3c-0.4,0-0.7-0.1-1.1-0.2c-0.3-0.1-0.6-0.3-0.8-0.6
				l-0.5-0.5c-0.3-0.3-0.6-0.5-0.9-0.7c-0.5-0.3-0.9-0.5-1.4-0.6c-0.7-0.2-1.4-0.3-2.1-0.3c-0.6,0-1.2,0-1.8,0.1
				c-0.5,0.1-1,0.2-1.5,0.4c-0.4,0.2-0.8,0.4-1.1,0.7c-0.3,0.3-0.4,0.8-0.4,1.2c0,0.4,0.1,0.9,0.5,1.2c0.4,0.4,1,0.7,1.5,0.9
				c0.9,0.3,1.9,0.6,2.9,0.8c1.2,0.3,2.6,0.6,4.4,0.9c1.6,0.3,3.1,0.7,4.6,1.3c1.2,0.5,2.3,1.1,3.3,2c0.9,0.8,1.6,1.8,2,2.9
				c0.5,1.2,0.7,2.6,0.6,3.9c0,1.3-0.2,2.5-0.8,3.7c-0.5,1.1-1.2,2.2-2.2,3c-1,0.9-2.1,1.6-3.4,2.1c-1.4,0.6-2.8,1-4.3,1.2v3.4
				c0,0.7-0.6,1.3-1.3,1.3h-6.3c-0.7,0-1.3-0.6-1.3-1.3v-3.5c-1.4-0.3-2.8-0.8-4.1-1.5c-1.1-0.6-2.2-1.4-3.2-2.2
				c-0.8-0.8-1.5-1.7-2-2.7c-0.5-0.9-0.7-1.9-0.8-3c0-0.3,0.1-0.5,0.3-0.7c0.2-0.2,0.4-0.3,0.7-0.3h6.3c0.4,0,0.7,0,1.1,0.2
				c0.3,0.1,0.5,0.3,0.8,0.5l0.6,0.6c0.3,0.3,0.6,0.6,1,0.9c0.5,0.3,1.1,0.6,1.6,0.8c0.8,0.2,1.6,0.3,2.4,0.3c1.4,0,2.9-0.1,4.2-0.5
				c1.1-0.4,1.7-1,1.7-2c0-0.5-0.2-0.9-0.6-1.2c-0.6-0.4-1.3-0.7-2-0.9c-1-0.3-2.1-0.6-3.2-0.8c-1.3-0.3-2.8-0.6-4.6-1
				c-3.3-0.7-5.7-1.9-7.2-3.5c-1.6-1.8-2.4-4.2-2.3-6.6c0-1.1,0.2-2.2,0.6-3.2c0.4-1.1,1-2,1.8-2.9c0.8-0.9,1.8-1.7,2.9-2.2
				c1.2-0.7,2.5-1.2,3.9-1.5v-3.5c0-0.3,0.1-0.7,0.4-0.9c0.2-0.3,0.6-0.4,0.9-0.4h6.3c0.3,0,0.7,0.1,0.9,0.4
				c0.2,0.2,0.4,0.6,0.4,0.9L416.8,256.4L416.8,256.4z"/>
		</g>
	</g>
</g>
</svg>
